# xmcd
#
# Track frame offsets: 
#        177
#        10525
#        21745
#        36070
#        46965
#        54730
#        73310
#        85897
#        94690
#        100655
#        106675
#        117195
#        128715
#
# Disc length: 1861 seconds
#
# Revision: 1
# Processed by: cddbd v1.5.2PL0 Copyright (c) Steve Scherf et al.
# Submitted via: ExactAudioCopy v1.0b6
#
DISCID=a307430d
DTITLE=Al Jolson - The World's Greatest Entertainer
DYEAR=1959
DGENRE=Jazz
TTITLE0=Alabamy Bound
TTITLE1=Ma Blushin' Rosie (Ma Posie Sweet)
TTITLE2=My Gal Sal
TTITLE3=Bright Eyes- Little Girl
TTITLE4=I've Gotta Get Back To New York
TTITLE5=When You Were Sweet Sixteen
TTITLE6=Toot Toot Tootsie goodbye-You Made Me Love You (I Didn't Want 
TTITLE6=To Do It)
TTITLE7=The One I Love Belongs To Somebody Else
TTITLE8=That Certain Party
TTITLE9=She Is Ma Daisy
TTITLE10=Baby Face
TTITLE11=Hello 'Tucky
TTITLE12=I'll Be Seeing You
EXTD=
EXTT0=
EXTT1=
EXTT2=
EXTT3=
EXTT4=
EXTT5=
EXTT6=
EXTT7=
EXTT8=
EXTT9=
EXTT10=
EXTT11=
EXTT12=
PLAYORDER=
